<svg width="96" height="20" viewBox="0 0 96 20" fill="none" xmlns="http://www.w3.org/2000/svg">
<path d="M6.67188 7.4929C6.61884 7.02225 6.40009 6.65767 6.01562 6.39915C5.63116 6.13731 5.14725 6.00639 4.56392 6.00639C4.14631 6.00639 3.78504 6.07268 3.48011 6.20526C3.17519 6.33452 2.93821 6.51349 2.76918 6.74219C2.60346 6.96757 2.5206 7.22443 2.5206 7.51278C2.5206 7.75473 2.57694 7.96354 2.68963 8.1392C2.80563 8.31487 2.95644 8.46236 3.14205 8.58168C3.33097 8.69768 3.53314 8.79545 3.74858 8.875C3.96402 8.95123 4.17116 9.0142 4.37003 9.06392L5.36435 9.32244C5.68916 9.40199 6.02225 9.50971 6.36364 9.6456C6.70502 9.78149 7.02154 9.96046 7.31321 10.1825C7.60488 10.4046 7.8402 10.6797 8.01918 11.0078C8.20147 11.3359 8.29261 11.7287 8.29261 12.1861C8.29261 12.7628 8.14347 13.2749 7.84517 13.7223C7.55019 14.1697 7.12098 14.5227 6.55753 14.7812C5.9974 15.0398 5.3196 15.169 4.52415 15.169C3.76184 15.169 3.10227 15.0481 2.54545 14.8061C1.98864 14.5642 1.55279 14.2211 1.23793 13.777C0.923059 13.3295 0.749053 12.7992 0.715909 12.1861H2.2571C2.28693 12.554 2.40625 12.8606 2.61506 13.1058C2.82718 13.3478 3.0973 13.5284 3.42543 13.6477C3.75687 13.7637 4.11979 13.8217 4.5142 13.8217C4.94839 13.8217 5.33452 13.7538 5.67259 13.6179C6.01397 13.4787 6.28243 13.2865 6.47798 13.0412C6.67353 12.7926 6.77131 12.5026 6.77131 12.1712C6.77131 11.8696 6.68513 11.6226 6.51278 11.4304C6.34375 11.2382 6.1134 11.0791 5.82173 10.9531C5.53338 10.8272 5.20691 10.7161 4.84233 10.62L3.6392 10.2919C2.82386 10.0698 2.17756 9.74337 1.70028 9.3125C1.22633 8.88163 0.989347 8.31155 0.989347 7.60227C0.989347 7.01562 1.14844 6.50355 1.46662 6.06605C1.7848 5.62855 2.21567 5.28883 2.75923 5.04688C3.30279 4.80161 3.91596 4.67898 4.59872 4.67898C5.28812 4.67898 5.89631 4.79995 6.4233 5.0419C6.9536 5.28385 7.37121 5.61695 7.67614 6.04119C7.98106 6.46212 8.14015 6.94602 8.15341 7.4929H6.67188ZM11.4956 10.4659V15H10.0091V4.81818H11.4757V8.60653H11.5701C11.7491 8.19555 12.0225 7.86908 12.3904 7.62713C12.7583 7.38518 13.2389 7.2642 13.8322 7.2642C14.3559 7.2642 14.8133 7.37192 15.2044 7.58736C15.5988 7.80279 15.9037 8.12429 16.1191 8.55185C16.3379 8.97609 16.4473 9.50639 16.4473 10.1428V15H14.9608V10.3217C14.9608 9.7616 14.8166 9.32741 14.5282 9.01918C14.2399 8.70762 13.8388 8.55185 13.3251 8.55185C12.9738 8.55185 12.6589 8.62642 12.3805 8.77557C12.1054 8.92472 11.8883 9.14347 11.7292 9.43182C11.5734 9.71686 11.4956 10.0616 11.4956 10.4659ZM21.6475 15.1541C20.9316 15.1541 20.3069 14.9901 19.7733 14.6619C19.2396 14.3338 18.8253 13.8748 18.5304 13.2848C18.2354 12.6948 18.0879 12.0054 18.0879 11.2166C18.0879 10.4245 18.2354 9.73177 18.5304 9.13849C18.8253 8.54522 19.2396 8.08452 19.7733 7.75639C20.3069 7.42827 20.9316 7.2642 21.6475 7.2642C22.3635 7.2642 22.9882 7.42827 23.5218 7.75639C24.0555 8.08452 24.4698 8.54522 24.7647 9.13849C25.0597 9.73177 25.2072 10.4245 25.2072 11.2166C25.2072 12.0054 25.0597 12.6948 24.7647 13.2848C24.4698 13.8748 24.0555 14.3338 23.5218 14.6619C22.9882 14.9901 22.3635 15.1541 21.6475 15.1541ZM21.6525 13.9062C22.1165 13.9062 22.501 13.7836 22.8059 13.5384C23.1109 13.2931 23.3362 12.9666 23.4821 12.5589C23.6312 12.1513 23.7058 11.7022 23.7058 11.2116C23.7058 10.7244 23.6312 10.277 23.4821 9.86932C23.3362 9.45833 23.1109 9.12855 22.8059 8.87997C22.501 8.63139 22.1165 8.5071 21.6525 8.5071C21.1852 8.5071 20.7974 8.63139 20.4892 8.87997C20.1842 9.12855 19.9572 9.45833 19.8081 9.86932C19.6622 10.277 19.5893 10.7244 19.5893 11.2116C19.5893 11.7022 19.6622 12.1513 19.8081 12.5589C19.9572 12.9666 20.1842 13.2931 20.4892 13.5384C20.7974 13.7836 21.1852 13.9062 21.6525 13.9062ZM28.2896 15L26.0424 7.36364H27.5787L29.0751 12.9716H29.1497L30.6511 7.36364H32.1873L33.6788 12.9467H33.7534L35.2399 7.36364H36.7761L34.5339 15H33.0176L31.4664 9.48651H31.3521L29.801 15H28.2896ZM41.8919 15V7.36364H43.3187V8.60653H43.4132C43.5723 8.18561 43.8324 7.85748 44.1937 7.62216C44.555 7.38352 44.9875 7.2642 45.4913 7.2642C46.0017 7.2642 46.4293 7.38352 46.774 7.62216C47.122 7.8608 47.3788 8.18892 47.5446 8.60653H47.6241C47.8064 8.19886 48.0964 7.87405 48.4941 7.6321C48.8919 7.38684 49.3658 7.2642 49.916 7.2642C50.6087 7.2642 51.1738 7.4813 51.6113 7.91548C52.0521 8.34967 52.2725 9.00426 52.2725 9.87926V15H50.786V10.0185C50.786 9.50142 50.6452 9.12689 50.3635 8.89489C50.0817 8.66288 49.7453 8.54688 49.3542 8.54688C48.8703 8.54688 48.4941 8.69602 48.2257 8.99432C47.9572 9.2893 47.823 9.6688 47.823 10.1328V15H46.3414V9.92401C46.3414 9.50971 46.2122 9.17661 45.9537 8.92472C45.6951 8.67282 45.3587 8.54688 44.9444 8.54688C44.6627 8.54688 44.4025 8.62145 44.1639 8.7706C43.9286 8.91643 43.738 9.12026 43.5922 9.3821C43.4496 9.64394 43.3784 9.94721 43.3784 10.2919V15H41.8919ZM57.4815 15.1541C56.7656 15.1541 56.1409 14.9901 55.6072 14.6619C55.0736 14.3338 54.6593 13.8748 54.3643 13.2848C54.0694 12.6948 53.9219 12.0054 53.9219 11.2166C53.9219 10.4245 54.0694 9.73177 54.3643 9.13849C54.6593 8.54522 55.0736 8.08452 55.6072 7.75639C56.1409 7.42827 56.7656 7.2642 57.4815 7.2642C58.1974 7.2642 58.8222 7.42827 59.3558 7.75639C59.8894 8.08452 60.3037 8.54522 60.5987 9.13849C60.8937 9.73177 61.0412 10.4245 61.0412 11.2166C61.0412 12.0054 60.8937 12.6948 60.5987 13.2848C60.3037 13.8748 59.8894 14.3338 59.3558 14.6619C58.8222 14.9901 58.1974 15.1541 57.4815 15.1541ZM57.4865 13.9062C57.9505 13.9062 58.335 13.7836 58.6399 13.5384C58.9448 13.2931 59.1702 12.9666 59.3161 12.5589C59.4652 12.1513 59.5398 11.7022 59.5398 11.2116C59.5398 10.7244 59.4652 10.277 59.3161 9.86932C59.1702 9.45833 58.9448 9.12855 58.6399 8.87997C58.335 8.63139 57.9505 8.5071 57.4865 8.5071C57.0192 8.5071 56.6314 8.63139 56.3232 8.87997C56.0182 9.12855 55.7912 9.45833 55.642 9.86932C55.4962 10.277 55.4233 10.7244 55.4233 11.2116C55.4233 11.7022 55.4962 12.1513 55.642 12.5589C55.7912 12.9666 56.0182 13.2931 56.3232 13.5384C56.6314 13.7836 57.0192 13.9062 57.4865 13.9062ZM62.7005 15V7.36364H64.1373V8.5767H64.2168C64.356 8.16572 64.6013 7.84257 64.9526 7.60724C65.3072 7.36861 65.7083 7.24929 66.1557 7.24929C66.2485 7.24929 66.3579 7.2526 66.4838 7.25923C66.6131 7.26586 66.7142 7.27415 66.7871 7.28409V8.70597C66.7275 8.68939 66.6214 8.67116 66.4689 8.65128C66.3165 8.62808 66.164 8.61648 66.0115 8.61648C65.6602 8.61648 65.347 8.69105 65.0719 8.8402C64.8001 8.98603 64.5847 9.18987 64.4256 9.4517C64.2665 9.71023 64.187 10.0052 64.187 10.3366V15H62.7005ZM71.0913 15.1541C70.3389 15.1541 69.6909 14.9934 69.1474 14.6719C68.6071 14.3471 68.1895 13.8913 67.8945 13.3047C67.6029 12.7147 67.457 12.0237 67.457 11.2315C67.457 10.4493 67.6029 9.75994 67.8945 9.16335C68.1895 8.56676 68.6005 8.10109 69.1275 7.76633C69.6578 7.43158 70.2776 7.2642 70.9869 7.2642C71.4177 7.2642 71.8353 7.33546 72.2397 7.47798C72.6441 7.6205 73.007 7.84422 73.3285 8.14915C73.65 8.45407 73.9035 8.85014 74.0891 9.33736C74.2747 9.82126 74.3675 10.4096 74.3675 11.1023V11.6293H68.2972V10.5156H72.9109C72.9109 10.1245 72.8313 9.77817 72.6722 9.47656C72.5131 9.17164 72.2894 8.93134 72.0011 8.75568C71.716 8.58002 71.3813 8.49219 70.9968 8.49219C70.5792 8.49219 70.2146 8.59493 69.9031 8.80043C69.5948 9.0026 69.3562 9.26776 69.1871 9.59588C69.0214 9.92069 68.9386 10.2737 68.9386 10.6548V11.5249C68.9386 12.0353 69.0281 12.4695 69.207 12.8274C69.3893 13.1854 69.6429 13.4588 69.9677 13.6477C70.2925 13.8333 70.672 13.9261 71.1062 13.9261C71.3879 13.9261 71.6448 13.8864 71.8768 13.8068C72.1088 13.724 72.3093 13.6013 72.4783 13.4389C72.6474 13.2765 72.7766 13.076 72.8661 12.8374L74.2731 13.0909C74.1604 13.5052 73.9582 13.8681 73.6665 14.1797C73.3782 14.4879 73.0153 14.7282 72.5778 14.9006C72.1436 15.0696 71.6481 15.1541 71.0913 15.1541Z" fill="black"/>
<path d="M0 17.7841H75.0238V18.7386H0V17.7841Z" fill="black"/>
<path d="M87.1666 7.83337L89.5 10L87.1666 12.1667" stroke="black" stroke-width="1.5" stroke-linecap="round" stroke-linejoin="round"/>
</svg>
